<svg width="145" height="46" viewBox="0 0 145 46" fill="none" xmlns="http://www.w3.org/2000/svg">
<path d="M15.0781 0V3.799C21.2841 3.799 26.3301 8.845 26.3301 15.051H30.1291C30.1291 6.757 23.4011 0 15.0781 0Z" fill="#1EDC78"/>
<path d="M15.0781 7.54004V11.252C17.1951 11.252 18.8771 12.963 18.8771 15.051H22.5891C22.5891 10.904 19.2251 7.54004 15.0781 7.54004Z" fill="#1EDC78"/>
<path d="M15.0781 15.0801V18.8791C21.2841 18.8791 26.3301 23.9251 26.3301 30.1311H30.1291C30.1291 21.8081 23.4011 15.0801 15.0781 15.0801Z" fill="#1EDC78"/>
<path d="M15.0781 22.6201V26.3321C17.1951 26.3321 18.8771 28.0431 18.8771 30.1311H22.5891C22.5891 25.9841 19.2251 22.6201 15.0781 22.6201Z" fill="#1EDC78"/>
<path d="M15.08 30.1311V26.3321C8.874 26.3321 3.828 21.2861 3.828 15.0801H0C0 23.4031 6.757 30.1311 15.08 30.1311Z" fill="#1EDC78"/>
<path d="M15.0791 22.5911V18.8791C12.9621 18.8791 11.2801 17.1681 11.2801 15.0801H7.53906C7.53906 19.2271 10.9031 22.5911 15.0791 22.5911Z" fill="#1EDC78"/>
<path d="M15.08 45.2109V41.4119C8.874 41.4119 3.828 36.3659 3.828 30.1599H0C0 38.4539 6.757 45.2109 15.08 45.2109Z" fill="#1EDC78"/>
<path d="M15.0791 37.6709V33.9589C12.9621 33.9589 11.2801 32.2479 11.2801 30.1599H7.53906C7.53906 34.3069 10.9031 37.6709 15.0791 37.6709Z" fill="#1EDC78"/>
<path d="M55.7658 29.9571C55.7658 31.9001 55.0988 33.3791 53.7358 34.3941C52.4018 35.4091 50.3717 35.9021 47.7037 35.9021C46.3407 35.9021 45.1517 35.8151 44.1947 35.6121C43.2377 35.4381 42.3098 35.1481 41.4688 34.8001V30.5371C42.4257 31.0011 43.4987 31.3781 44.7167 31.6681C45.9057 31.9581 46.9788 32.1321 47.8778 32.1321C49.7338 32.1321 50.6908 31.5811 50.6908 30.5081C50.6908 30.1021 50.5747 29.7831 50.3137 29.5221C50.0527 29.2611 49.6468 28.9711 49.0378 28.6521C48.4288 28.3331 47.6167 27.9561 46.6017 27.5211C45.1517 26.9121 44.0787 26.3611 43.4117 25.8391C42.7447 25.3171 42.2228 24.7371 41.9328 24.0701C41.6138 23.4031 41.4688 22.5621 41.4688 21.6051C41.4688 19.9231 42.1067 18.6181 43.4117 17.7191C44.7167 16.7911 46.5438 16.3561 48.9508 16.3561C51.2128 16.3561 53.4457 16.8491 55.5917 17.8351L54.0258 21.5471C53.0688 21.1411 52.1987 20.8221 51.3867 20.5611C50.5747 20.3001 49.7337 20.1841 48.8637 20.1841C47.3558 20.1841 46.5728 20.5901 46.5728 21.4311C46.5728 21.8951 46.8048 22.3011 47.2978 22.6201C47.7908 22.9681 48.8637 23.4611 50.5167 24.1281C51.9957 24.7371 53.0687 25.2881 53.7647 25.8101C54.4607 26.3321 54.9538 26.9121 55.2728 27.6081C55.6208 28.2171 55.7658 29.0291 55.7658 29.9571Z" fill="white"/>
<path d="M67.7428 31.8131C68.6418 31.8131 69.7148 31.6101 70.9908 31.2331V35.0611C69.7148 35.6411 68.1198 35.9311 66.2638 35.9311C64.2048 35.9311 62.6968 35.4091 61.7688 34.3651C60.8408 33.3211 60.3478 31.7551 60.3478 29.6671V20.5611H57.8828V18.3861L60.7248 16.6751L62.2038 12.7021H65.5098V16.7331H70.7878V20.5901H65.5098V29.6961C65.5098 30.4211 65.7128 30.9721 66.1188 31.3201C66.5248 31.6391 67.0758 31.8131 67.7428 31.8131Z" fill="white"/>
<path d="M78.9092 26.1001C78.9092 27.9561 79.2282 29.3771 79.8372 30.3341C80.4462 31.2911 81.4612 31.7551 82.8242 31.7551C84.1872 31.7551 85.1732 31.2911 85.7822 30.3341C86.3912 29.3771 86.6812 27.9561 86.6812 26.1001C86.6812 24.2441 86.3912 22.8231 85.7822 21.8951C85.1732 20.9671 84.1872 20.5031 82.7952 20.5031C81.4322 20.5031 80.4172 20.9671 79.8082 21.8951C79.2282 22.8231 78.9092 24.2151 78.9092 26.1001ZM91.9592 26.1001C91.9592 29.1741 91.1472 31.5811 89.5232 33.3211C87.8992 35.0611 85.6372 35.9311 82.7372 35.9311C80.9102 35.9311 79.3152 35.5251 77.9522 34.7421C76.5602 33.9591 75.5162 32.7991 74.7622 31.3201C74.0082 29.8411 73.6602 28.1011 73.6602 26.1291C73.6602 23.0551 74.4722 20.6481 76.0672 18.9371C77.6912 17.2261 79.9532 16.3561 82.8532 16.3561C84.6512 16.3561 86.2752 16.7621 87.6382 17.5451C89.0302 18.3281 90.0742 19.4591 90.8282 20.9381C91.5822 22.3881 91.9592 24.1281 91.9592 26.1001Z" fill="white"/>
<path d="M113.649 35.5831H108.487V24.5631C108.487 23.2001 108.255 22.1851 107.762 21.4891C107.269 20.8221 106.515 20.4741 105.442 20.4741C103.992 20.4741 102.948 20.9671 102.31 21.9241C101.672 22.8811 101.353 24.4761 101.353 26.7091V35.5831H96.1914V16.7041H100.135L100.831 19.1111H101.121C101.701 18.2121 102.484 17.5161 103.499 17.0521C104.514 16.5881 105.645 16.3561 106.95 16.3561C109.154 16.3561 110.807 16.9651 111.938 18.1251C113.069 19.3141 113.649 21.0251 113.649 23.2581V35.5831Z" fill="white"/>
<path d="M129.425 26.8251L127.424 26.8831C125.916 26.9411 124.814 27.2021 124.089 27.6951C123.364 28.1881 122.987 28.9421 122.987 29.9571C122.987 31.4071 123.828 32.1321 125.481 32.1321C126.67 32.1321 127.627 31.7841 128.352 31.0881C129.077 30.3921 129.425 29.4931 129.425 28.3621V26.8251ZM130.933 35.5831L129.947 33.0021H129.802C128.932 34.1041 128.033 34.8581 127.134 35.2641C126.206 35.6991 125.017 35.9021 123.538 35.9021C121.711 35.9021 120.29 35.3801 119.246 34.3361C118.202 33.2921 117.68 31.8131 117.68 29.8991C117.68 27.8981 118.376 26.4191 119.797 25.4621C121.189 24.5051 123.306 23.9831 126.148 23.8961L129.425 23.8091V22.9681C129.425 21.0541 128.439 20.0971 126.496 20.0971C124.988 20.0971 123.219 20.5611 121.189 21.4601L119.478 17.9801C121.653 16.8491 124.06 16.2691 126.699 16.2691C129.222 16.2691 131.165 16.8201 132.528 17.9221C133.891 19.0241 134.558 20.7061 134.558 22.9681V35.5541H130.933V35.5831Z" fill="white"/>
<path d="M144.998 9.30908H139.836V35.5831H144.998V9.30908Z" fill="white"/>
</svg>
